<svg width="32" height="32" viewBox="0 0 32 32" fill="none" xmlns="http://www.w3.org/2000/svg">
<g clip-path="url(#clip0_35_3036)">
<path d="M16 32C24.8366 32 32 24.8366 32 16C32 7.16344 24.8366 0 16 0C7.16344 0 0 7.16344 0 16C0 24.8366 7.16344 32 16 32Z" fill="#2E3148"/>
<path d="M16 25.284C21.1274 25.284 25.2839 21.1274 25.2839 16C25.2839 10.8726 21.1274 6.71606 16 6.71606C10.8726 6.71606 6.716 10.8726 6.716 16C6.716 21.1274 10.8726 25.284 16 25.284Z" fill="#1B1E36"/>
<path d="M16.0329 2.04126C14.3058 2.04126 12.9053 8.30558 12.9053 16.0331C12.9053 23.7606 14.3058 30.0249 16.0329 30.0249C17.76 30.0249 19.1604 23.7606 19.1604 16.0331C19.1604 8.30558 17.76 2.04126 16.0329 2.04126ZM16.2488 29.2352C16.0513 29.4987 15.8538 29.301 15.8538 29.301C15.0584 28.3794 14.6607 26.6673 14.6607 26.6673C13.2695 22.19 13.6006 12.5768 13.6006 12.5768C14.2545 4.94494 15.4438 3.14206 15.8486 2.7418C15.8899 2.70095 15.9443 2.67599 16.0022 2.67131C16.0602 2.66662 16.1179 2.68252 16.1652 2.7162C16.7525 3.13233 17.245 4.87262 17.245 4.87262C18.6995 10.2718 18.5678 15.3417 18.5678 15.3417C18.6995 19.7533 17.839 24.6915 17.839 24.6915C17.1766 28.4445 16.2488 29.2352 16.2488 29.2352Z" fill="#6F7390"/>
<path d="M28.1692 9.07C27.3093 7.57138 21.1793 9.47422 14.4732 13.3196C7.76716 17.165 3.0368 21.4974 3.89606 22.9954C4.75532 24.4934 10.886 22.5912 17.5921 18.7458C24.2981 14.9004 29.0285 10.568 28.1692 9.07ZM4.6894 22.7898C4.36019 22.7483 4.43456 22.4777 4.43456 22.4777C4.8384 21.3295 6.12352 20.1324 6.12352 20.1324C9.31622 16.6974 17.82 12.2009 17.82 12.2009C24.7645 8.96991 26.9216 9.10623 27.4688 9.25688C27.525 9.27256 27.5738 9.30761 27.6066 9.35582C27.6394 9.40404 27.654 9.46231 27.648 9.52031C27.5822 10.2371 26.3146 11.5299 26.3146 11.5299C22.3579 15.4799 17.8944 17.8891 17.8944 17.8891C14.1334 20.1995 9.42169 21.9094 9.42169 21.9094C5.83654 23.2013 4.68953 22.7898 4.68953 22.7898H4.6894Z" fill="#6F7390"/>
<path d="M28.1389 23.0452C29.0054 21.5506 24.287 17.1983 17.6045 13.324C10.922 9.44971 4.7927 7.52331 3.9269 9.02052C3.06111 10.5177 7.77881 14.8674 14.4651 18.7417C21.1515 22.616 27.2731 24.5426 28.1389 23.0452ZM4.50111 9.59806C4.37311 9.29457 4.64332 9.22148 4.64332 9.22148C5.83961 8.99556 7.51999 9.51038 7.51999 9.51038C12.0915 10.5514 20.2432 15.6576 20.2432 15.6576C26.5194 20.0494 27.482 21.9839 27.6262 22.533C27.6409 22.5893 27.6352 22.649 27.6101 22.7015C27.5851 22.754 27.5423 22.796 27.4893 22.8201C26.8348 23.1197 25.082 22.6733 25.082 22.6733C19.6795 21.2247 15.3588 18.5706 15.3588 18.5706C11.4767 16.4768 7.63801 13.255 7.63801 13.255C4.72114 10.7991 4.50201 9.60139 4.50201 9.60139L4.50111 9.59806Z" fill="#6F7390"/>
<path d="M16 17.646C16.9091 17.646 17.6461 16.9091 17.6461 16C17.6461 15.0909 16.9091 14.3539 16 14.3539C15.0909 14.3539 14.3539 15.0909 14.3539 16C14.3539 16.9091 15.0909 17.646 16 17.646Z" fill="#B7B9C8"/>
<path d="M22.7489 10.6666C23.2762 10.6666 23.7037 10.2244 23.7037 9.67893C23.7037 9.13347 23.2762 8.69128 22.7489 8.69128C22.2216 8.69128 21.7942 9.13347 21.7942 9.67893C21.7942 10.2244 22.2216 10.6666 22.7489 10.6666Z" fill="#B7B9C8"/>
<path d="M7.07816 14.0247C7.60546 14.0247 8.03292 13.5825 8.03292 13.0371C8.03292 12.4916 7.60546 12.0494 7.07816 12.0494C6.55087 12.0494 6.12341 12.4916 6.12341 13.0371C6.12341 13.5825 6.55087 14.0247 7.07816 14.0247Z" fill="#B7B9C8"/>
<path d="M14.0576 26.1398C14.5849 26.1398 15.0123 25.6977 15.0123 25.1522C15.0123 24.6067 14.5849 24.1646 14.0576 24.1646C13.5303 24.1646 13.1028 24.6067 13.1028 25.1522C13.1028 25.6977 13.5303 26.1398 14.0576 26.1398Z" fill="#B7B9C8"/>
</g>
<defs>
<clipPath id="clip0_35_3036">
<rect width="32" height="32" fill="white"/>
</clipPath>
</defs>
</svg>
